<svg width="221" height="577" viewBox="0 0 221 577" fill="none" xmlns="http://www.w3.org/2000/svg">
<path d="M110.5 234.711V187.148L78.791 213.813V227.505L110.5 234.711Z" fill="black"/>
<path d="M110.5 234.711V187.148L142.209 213.813V227.505L110.5 234.711Z" fill="black"/>
<path d="M70.3828 222.097L110.499 206.242V244.917L70.3828 237.23V222.097Z" fill="black"/>
<path d="M150.615 222.097L110.499 206.242V244.917L150.615 237.23V222.097Z" fill="black"/>
<path d="M110.5 261.016L57.8926 247.324V238.676L70.504 228.347L110.5 214.414V261.016Z" fill="black"/>
<path d="M110.5 261.016L163.107 247.324V238.676L150.496 228.347L110.5 214.414V261.016Z" fill="black"/>
<path d="M110.5 219.461L57.8926 238.438V255.494L110.5 268.706V219.461Z" fill="black"/>
<path d="M110.5 219.461L163.107 238.438V255.494L110.5 268.706V219.461Z" fill="black"/>
<path d="M49.9648 279.755L66.7801 273.269L110.5 267.023V288.163H49.9648V279.755Z" fill="black"/>
<rect width="60.5348" height="38.675" transform="translate(49.9648 280.469)" fill="black"/>
<path d="M49.9648 319.148H110.497L110.5 345.572L49.9648 321.31V319.148Z" fill="black"/>
<rect width="60.5348" height="7.68696" transform="translate(49.9648 311.461)" fill="black"/>
<path d="M171.035 279.755L154.22 273.269L110.5 267.023V288.163H171.035V279.755Z" fill="black"/>
<rect width="60.5348" height="38.675" transform="matrix(-1 0 0 1 171.035 280.469)" fill="black"/>
<path d="M171.035 319.148H110.503L110.5 345.572L171.035 321.31V319.148Z" fill="black"/>
<rect width="60.5348" height="7.68696" transform="matrix(-1 0 0 1 171.035 311.461)" fill="black"/>
<path d="M24.9824 342.569V319.027L110.5 290.922V390.612L24.9824 342.569Z" fill="black"/>
<path d="M196.018 342.569V319.027L110.5 290.922V390.612L196.018 342.569Z" fill="black"/>
<path d="M33.3906 309.536L110.5 290.078V362.864L33.3906 326.111V309.536Z" fill="black"/>
<path d="M187.609 309.536L110.5 290.078V362.864L187.609 326.111V309.536Z" fill="black"/>
<path d="M87.1992 216.938L110.5 197V227.748L87.1992 222.463V216.938Z" fill="#00FF00"/>
<path d="M87.1992 216.937L110.5 206.367V227.747L87.1992 222.462V216.937Z" fill="#00BA00"/>
<path d="M87.1992 216.937L110.5 206.367V213.574L87.1992 222.462V216.937Z" fill="#00BA00"/>
<path d="M133.801 216.938L110.5 197V227.748L133.801 222.463V216.938Z" fill="#00FF00"/>
<path d="M133.801 216.937L110.5 206.367V227.747L133.801 222.462V216.937Z" fill="#00BA00"/>
<path d="M133.801 216.937L110.5 206.367V213.574L133.801 222.462V216.937Z" fill="#00BA00"/>
<path d="M79.5117 225.224L110.5 213.453V237.715L79.5117 232.43V225.224Z" fill="#00BA00"/>
<path d="M79.5117 225.224L110.5 213.453V221.861L79.5117 232.43V225.224Z" fill="#00FF00"/>
<path d="M141.486 225.224L110.498 213.453V237.715L141.486 232.43V225.224Z" fill="#00BA00"/>
<path d="M141.486 225.224L110.498 213.453V221.861L141.486 232.43V225.224Z" fill="#00FF00"/>
<path d="M79.5128 232.429L110.501 221.859V253.088L66.7812 242.518L79.5128 232.429Z" fill="#00BA00"/>
<path d="M79.5128 232.429L110.501 221.859V227.865L66.7812 242.518L79.5128 232.429Z" fill="#00BA00"/>
<path d="M141.487 232.429L110.499 221.859V253.088L154.219 242.518L141.487 232.429Z" fill="#00BA00"/>
<path d="M141.487 232.429L110.499 221.859V227.865L154.219 242.518L141.487 232.429Z" fill="#00BA00"/>
<path d="M66.7812 242.52L110.501 227.867V260.777L66.7812 250.207V242.52Z" fill="#00BA00"/>
<path d="M66.7812 242.52L110.501 227.867V235.554L66.7812 250.207V242.52Z" fill="#00FF00"/>
<path d="M154.219 242.52L110.499 227.867V260.777L154.219 250.207V242.52Z" fill="#00BA00"/>
<path d="M154.219 242.52L110.499 227.867V235.554L154.219 250.207V242.52Z" fill="#00FF00"/>
<path d="M33.3906 338.486V325.033L110.5 299.57V381.725L33.3906 338.486Z" fill="#00FF00"/>
<path d="M110.5 361.306L33.3906 325.033L110.5 299.57V361.306Z" fill="#00BA00"/>
<path d="M187.609 338.486V325.033L110.5 299.57V381.725L187.609 338.486Z" fill="#00FF00"/>
<path d="M110.5 361.306L187.609 325.033L110.5 299.57V361.306Z" fill="#00BA00"/>
<path d="M42.7578 322.033V314.827L110.499 298.492V353.022L42.7578 322.033Z" fill="#00FF00"/>
<path d="M42.7578 314.827L110.499 298.492V343.173L42.7578 314.827Z" fill="#00BA00"/>
<path d="M178.242 322.033V314.827L110.501 298.492V353.022L178.242 322.033Z" fill="#00FF00"/>
<path d="M178.242 314.827L110.501 298.492V343.173L178.242 314.827Z" fill="#00BA00"/>
<path d="M66.7814 274.464L110.501 289.117V267.498H66.7812L66.7814 274.464Z" fill="black"/>
<path d="M154.219 274.464L110.499 289.117V267.498H154.219L154.219 274.464Z" fill="black"/>
<rect width="87.4391" height="17.5359" transform="translate(66.7812 252.367)" fill="black"/>
<path d="M66.7814 250.208L110.501 235.555V257.174H66.7812L66.7814 250.208Z" fill="black"/>
<path d="M154.219 250.208L110.499 235.555V257.174H154.219L154.219 250.208Z" fill="black"/>
<path d="M154.111 265.72C155.626 281.126 141.378 288.924 111.367 289.112C81.4284 289.338 66.5672 282.2 66.7836 267.697C67 253.233 81.2119 245.435 109.419 244.305C137.555 243.213 152.452 250.351 154.111 265.72Z" fill="black"/>
<path d="M83.7763 266.209C84.329 264.177 86.9765 261.638 92.1972 259.813C97.4071 257.999 103.987 259.096 108.574 260.286C110.626 260.883 110.502 261.48 110.503 262.181C110.504 263.117 109.301 263.366 109.301 263.366C90.0001 268.471 91.8037 270.476 86.9116 269.762C84.0298 269.341 83.2057 268.243 83.7763 266.209Z" fill="#99CC00"/>
<path d="M137.224 266.209C136.671 264.177 134.023 261.638 128.803 259.813C123.593 257.999 117.013 259.096 112.426 260.286C110.374 260.883 110.498 261.48 110.497 262.181C110.496 263.117 111.699 263.366 111.699 263.366C131 268.471 129.196 270.476 134.088 269.762C136.97 269.341 137.794 268.243 137.224 266.209Z" fill="#99CC00"/>
<path d="M135.66 254.197C136.534 263.589 128.314 268.343 111 268.458C93.7276 268.596 85.1538 264.244 85.2787 255.403C85.4035 246.585 93.6027 241.831 109.876 241.142C126.108 240.476 134.703 244.828 135.66 254.197Z" fill="#99FF00"/>
<path d="M98.52 248.576C98.1038 255.661 102.018 259.247 110.263 259.334C118.488 259.437 122.571 256.155 122.511 249.485C122.452 242.833 118.547 239.247 110.798 238.727C103.068 238.225 98.9758 241.508 98.52 248.576Z" fill="black"/>
<path d="M154.22 250.208V257.895L110.501 243.392L66.7812 257.895V250.208L110.501 235.555L154.22 250.208Z" fill="black"/>
<path d="M49.9648 307.617H100.891V331.639L49.9648 310.5V307.617Z" fill="black"/>
<path d="M49.9648 307.617H100.891V331.639L49.9648 310.5V307.617Z" fill="black"/>
<path d="M49.9648 307.617V310.5L100.891 331.639V307.617H49.9648Z" fill="black"/>
<rect width="50.9261" height="27.625" transform="translate(49.9648 282.875)" fill="black"/>
<path d="M50.2611 299.156C49.4995 309.949 56.6626 315.411 71.7506 315.543C86.8022 315.702 94.2737 310.701 94.1648 300.542C94.056 290.409 86.911 284.946 72.7298 284.155C58.5849 283.389 51.0953 288.39 50.2611 299.156Z" fill="black"/>
<path d="M95.4363 317.857C94.8809 315.825 92.2302 313.287 87.0072 311.462C81.7949 309.648 75.2163 310.744 70.6309 311.935C68.5795 312.532 68.7046 313.129 68.7046 313.83C68.7046 314.765 69.9082 315.015 69.9082 315.015C89.2154 320.12 87.4144 322.124 92.3055 321.41C95.1868 320.99 96.0095 319.891 95.4363 317.857Z" fill="#99CC00"/>
<path d="M59.6179 299.383C59.0186 310.34 64.6552 315.886 76.5276 316.02C88.3716 316.18 94.2507 311.104 94.1651 300.789C94.0795 290.501 88.4572 284.956 77.2982 284.152C66.1678 283.375 60.2743 288.452 59.6179 299.383Z" fill="#99FF00"/>
<path d="M54.3207 299.061C53.8795 305.487 58.0287 308.74 66.7681 308.818C75.4866 308.912 79.8143 305.935 79.7513 299.886C79.6882 293.852 75.5496 290.6 67.3354 290.129C59.1421 289.673 54.8039 292.65 54.3207 299.061Z" fill="black"/>
<path d="M101.129 324.143L49.9648 304.977V310.607L101.129 331.881V324.143Z" fill="black"/>
<rect width="5.04457" height="27.625" transform="translate(59.5742 282.875)" fill="black"/>
<path d="M49.9648 282.875V296.327L100.89 293.685V282.875H49.9648Z" fill="black"/>
<rect width="9.6087" height="49.0043" transform="translate(100.891 282.875)" fill="black"/>
<path d="M171.035 307.617H120.109V331.639L171.035 310.5V307.617Z" fill="black"/>
<path d="M171.035 307.617H120.109V331.639L171.035 310.5V307.617Z" fill="black"/>
<path d="M171.035 307.617V310.5L120.109 331.639V307.617H171.035Z" fill="black"/>
<rect width="50.9261" height="27.625" transform="matrix(-1 0 0 1 171.035 282.875)" fill="black"/>
<path d="M170.739 299.156C171.501 309.949 164.337 315.411 149.249 315.543C134.198 315.702 126.726 310.701 126.835 300.542C126.944 290.409 134.089 284.946 148.27 284.155C162.415 283.389 169.905 288.39 170.739 299.156Z" fill="black"/>
<path d="M125.564 317.857C126.119 315.825 128.77 313.287 133.993 311.462C139.205 309.648 145.784 310.744 150.369 311.935C152.421 312.532 152.295 313.129 152.295 313.83C152.295 314.765 151.092 315.015 151.092 315.015C131.785 320.12 133.586 322.124 128.695 321.41C125.813 320.99 124.99 319.891 125.564 317.857Z" fill="#99CC00"/>
<path d="M161.382 299.383C161.981 310.34 156.345 315.886 144.472 316.02C132.628 316.18 126.749 311.104 126.835 300.789C126.921 290.501 132.543 284.956 143.702 284.152C154.832 283.375 160.726 288.452 161.382 299.383Z" fill="#99FF00"/>
<path d="M166.679 299.061C167.12 305.487 162.971 308.74 154.232 308.818C145.513 308.912 141.186 305.935 141.249 299.886C141.312 293.852 145.45 290.6 153.665 290.129C161.858 289.673 166.196 292.65 166.679 299.061Z" fill="black"/>
<path d="M119.871 324.143L171.035 304.977V310.607L119.871 331.881V324.143Z" fill="black"/>
<rect width="5.04457" height="27.625" transform="matrix(-1 0 0 1 161.426 282.875)" fill="black"/>
<path d="M171.035 282.875V296.327L120.11 293.685V282.875H171.035Z" fill="black"/>
<rect width="9.6087" height="49.0043" transform="matrix(-1 0 0 1 120.109 282.875)" fill="black"/>
<rect width="9.6087" height="7.68696" transform="translate(100.891 280.469)" fill="#00FF00"/>
<path d="M60.0547 284.077L76.6957 278.312L110.46 273.508V284.798L60.0547 288.161V284.077Z" fill="#00FF00"/>
<path d="M110.514 288.161V273.508L106.896 276.15V288.161H110.514Z" fill="#00BA00"/>
<path d="M76.6957 278.312L60.0547 284.077L106.843 279.753L110.46 273.508L76.6957 278.312Z" fill="#00BA00"/>
<rect width="9.6087" height="36.513" transform="translate(100.891 280.469)" fill="#00FF00"/>
<rect width="3.60326" height="36.513" transform="translate(106.896 280.469)" fill="#00BA00"/>
<path d="M110.499 335.721L110.499 309.297H100.891V331.877L110.499 335.721Z" fill="#00FF00"/>
<path d="M110.5 309.297V335.721L106.896 334.279V309.297H110.5Z" fill="#00BA00"/>
<rect width="9.6087" height="7.68696" transform="matrix(-1 0 0 1 120.109 280.469)" fill="#00FF00"/>
<path d="M160.945 284.077L144.304 278.312L110.54 273.508V284.798L160.945 288.161V284.077Z" fill="#00FF00"/>
<path d="M110.486 288.161V273.508L114.104 276.15V288.161H110.486Z" fill="#00BA00"/>
<path d="M144.304 278.312L160.945 284.077L114.157 279.753L110.54 273.508L144.304 278.312Z" fill="#00BA00"/>
<rect width="9.6087" height="36.513" transform="matrix(-1 0 0 1 120.109 280.469)" fill="#00FF00"/>
<rect width="3.60326" height="36.513" transform="matrix(-1 0 0 1 114.104 280.469)" fill="#00BA00"/>
<path d="M110.501 335.721L110.501 309.297H120.109V331.877L110.501 335.721Z" fill="#00FF00"/>
<path d="M110.5 309.297V335.721L114.104 334.279V309.297H110.5Z" fill="#00BA00"/>
<path d="M15.267 504.68L15.267 497.483L16.8697 497.483L16.8697 504.68L15.267 504.68ZM14.1147 500.951L14.1147 499.589L18.0219 499.589L18.0219 500.951L14.1147 500.951ZM21.1399 504.795C20.5882 504.795 20.0958 504.683 19.6629 504.46C19.2369 504.229 18.9017 503.912 18.6572 503.506C18.4128 503.101 18.2906 502.644 18.2906 502.134C18.2906 501.624 18.4093 501.171 18.6468 500.772C18.8912 500.367 19.2194 500.05 19.6314 499.819C20.0435 499.589 20.5079 499.474 21.0246 499.474C21.5274 499.474 21.9709 499.582 22.355 499.798C22.7391 500.015 23.0394 500.315 23.2558 500.699C23.4793 501.083 23.591 501.523 23.591 502.019C23.591 502.11 23.5841 502.208 23.5701 502.312C23.5631 502.41 23.5457 502.525 23.5177 502.658L19.1286 502.668L19.1286 501.569L22.8368 501.558L22.1455 502.019C22.1385 501.726 22.0931 501.485 22.0093 501.296C21.9255 501.101 21.7998 500.954 21.6322 500.856C21.4716 500.751 21.2725 500.699 21.0351 500.699C20.7837 500.699 20.5637 500.758 20.3752 500.877C20.1936 500.989 20.0504 501.15 19.9457 501.359C19.8479 501.569 19.799 501.823 19.799 502.124C19.799 502.424 19.8514 502.682 19.9562 502.899C20.0679 503.108 20.2215 503.273 20.4171 503.391C20.6196 503.503 20.857 503.559 21.1294 503.559C21.3808 503.559 21.6077 503.517 21.8103 503.433C22.0128 503.342 22.1909 503.21 22.3445 503.035L23.2244 503.915C22.973 504.208 22.6692 504.428 22.3131 504.575C21.9569 504.722 21.5658 504.795 21.1399 504.795ZM24.3647 504.68L24.3647 499.589L25.9674 499.589L25.9674 504.68L24.3647 504.68ZM27.6224 504.68L27.6224 501.705C27.6224 501.446 27.5421 501.247 27.3815 501.108C27.2279 500.961 27.0358 500.888 26.8054 500.888C26.6448 500.888 26.5016 500.923 26.3759 500.992C26.2502 501.055 26.1489 501.146 26.0721 501.265C26.0023 501.383 25.9674 501.53 25.9674 501.705L25.3493 501.432C25.3493 501.027 25.4366 500.682 25.6112 500.395C25.7858 500.102 26.0232 499.879 26.3235 499.725C26.6238 499.564 26.9625 499.484 27.3396 499.484C27.6958 499.484 28.0135 499.564 28.2928 499.725C28.5792 499.886 28.8061 500.109 28.9737 500.395C29.1413 500.682 29.2251 501.024 29.2251 501.422L29.2251 504.68L27.6224 504.68ZM30.8802 504.68L30.8802 501.705C30.8802 501.446 30.7999 501.247 30.6393 501.108C30.4856 500.961 30.2936 500.888 30.0632 500.888C29.9025 500.888 29.7594 500.923 29.6337 500.992C29.508 501.055 29.4067 501.146 29.3299 501.265C29.2601 501.383 29.2251 501.53 29.2251 501.705L28.3033 501.579C28.3173 501.146 28.4185 500.776 28.6071 500.469C28.8026 500.154 29.0575 499.913 29.3718 499.746C29.693 499.571 30.0527 499.484 30.4507 499.484C30.8418 499.484 31.1875 499.568 31.4878 499.735C31.795 499.896 32.036 500.13 32.2106 500.437C32.3921 500.738 32.4829 501.101 32.4829 501.527L32.4829 504.68L30.8802 504.68ZM36.443 504.784C36.1008 504.784 35.7866 504.718 35.5003 504.585C35.2139 504.453 34.98 504.271 34.7984 504.041C34.6168 503.803 34.5121 503.534 34.4842 503.234L34.4842 501.087C34.5121 500.786 34.6168 500.514 34.7984 500.27C34.98 500.025 35.2139 499.833 35.5003 499.694C35.7866 499.554 36.1008 499.484 36.443 499.484C36.9249 499.484 37.3509 499.599 37.721 499.83C38.0981 500.06 38.3914 500.374 38.6009 500.772C38.8174 501.171 38.9256 501.624 38.9256 502.134C38.9256 502.644 38.8174 503.098 38.6009 503.496C38.3914 503.894 38.0981 504.208 37.721 504.439C37.3509 504.669 36.9249 504.784 36.443 504.784ZM33.51 506.827L33.51 499.589L35.1127 499.589L35.1127 500.898L34.8508 502.134L35.0917 503.37L35.0917 506.827L33.51 506.827ZM36.1497 503.339C36.3802 503.339 36.5792 503.286 36.7468 503.182C36.9214 503.077 37.0576 502.934 37.1553 502.752C37.2531 502.571 37.302 502.365 37.302 502.134C37.302 501.897 37.2531 501.687 37.1553 501.506C37.0576 501.324 36.9214 501.184 36.7468 501.087C36.5792 500.982 36.3837 500.93 36.1602 500.93C35.9367 500.93 35.7377 500.982 35.5631 501.087C35.3955 501.184 35.2628 501.324 35.1651 501.506C35.0673 501.687 35.0184 501.897 35.0184 502.134C35.0184 502.365 35.0638 502.571 35.1546 502.752C35.2523 502.934 35.3885 503.077 35.5631 503.182C35.7377 503.286 35.9332 503.339 36.1497 503.339ZM39.7398 504.68L39.7398 497.075L41.3425 497.075L41.3425 504.68L39.7398 504.68ZM43.4768 504.795C43.2044 504.795 42.9775 504.701 42.7959 504.512C42.6143 504.324 42.5235 504.097 42.5235 503.831C42.5235 503.552 42.6143 503.321 42.7959 503.14C42.9775 502.951 43.2044 502.857 43.4768 502.857C43.7561 502.857 43.9831 502.951 44.1577 503.14C44.3392 503.321 44.43 503.552 44.43 503.831C44.43 504.097 44.3392 504.324 44.1577 504.512C43.9831 504.701 43.7561 504.795 43.4768 504.795ZM45.9645 504.68L45.9645 499.149C45.9645 498.737 46.0553 498.367 46.2368 498.038C46.4254 497.703 46.6873 497.441 47.0225 497.253C47.3577 497.057 47.7557 496.959 48.2166 496.959C48.5658 496.959 48.8696 497.019 49.128 497.138C49.3933 497.249 49.6238 497.406 49.8193 497.609L48.8137 498.615C48.7439 498.545 48.6636 498.492 48.5728 498.457C48.489 498.416 48.3877 498.395 48.269 498.395C48.0525 498.395 47.8814 498.457 47.7557 498.583C47.63 498.709 47.5672 498.88 47.5672 499.096L47.5672 504.68L45.9645 504.68ZM44.8436 500.951L44.8436 499.589L49.0337 499.589L49.0337 500.951L44.8436 500.951ZM52.1401 504.795C51.6722 504.795 51.2567 504.701 50.8935 504.512C50.5374 504.317 50.258 504.051 50.0555 503.716C49.853 503.374 49.7517 502.983 49.7517 502.543L49.7517 499.589L51.3544 499.589L51.3544 502.522C51.3544 502.696 51.3824 502.847 51.4382 502.972C51.5011 503.098 51.5919 503.196 51.7106 503.266C51.8293 503.335 51.9725 503.37 52.1401 503.37C52.3775 503.37 52.5661 503.297 52.7057 503.15C52.8454 502.997 52.9152 502.787 52.9152 502.522L52.9152 499.589L54.5179 499.589L54.5179 502.532C54.5179 502.979 54.4167 503.374 54.2142 503.716C54.0116 504.051 53.7323 504.317 53.3761 504.512C53.02 504.701 52.608 504.795 52.1401 504.795ZM58.8867 504.68L58.8867 501.778C58.8867 501.513 58.8029 501.3 58.6353 501.139C58.4747 500.971 58.2687 500.888 58.0173 500.888C57.8427 500.888 57.6891 500.926 57.5564 501.003C57.4237 501.073 57.319 501.177 57.2421 501.317C57.1653 501.45 57.1269 501.603 57.1269 501.778L56.5089 501.474C56.5089 501.076 56.5962 500.727 56.7708 500.427C56.9453 500.126 57.1863 499.896 57.4935 499.735C57.8078 499.568 58.1605 499.484 58.5515 499.484C58.9286 499.484 59.2604 499.575 59.5467 499.756C59.84 499.931 60.0704 500.165 60.238 500.458C60.4056 500.751 60.4894 501.073 60.4894 501.422L60.4894 504.68L58.8867 504.68ZM55.5242 504.68L55.5242 499.589L57.1269 499.589L57.1269 504.68L55.5242 504.68Z" fill="black"/>
<rect width="31.4255" height="53.8723" transform="translate(13.9785 432.586)" fill="black"/>
<rect width="31.4255" height="53.8723" transform="translate(184.574 432.586)" fill="black"/>
<rect width="31.4255" height="52.3759" transform="translate(144.17 449.047)" fill="black"/>
<rect width="202.021" height="43.3972" transform="translate(13.9785 449.047)" fill="black"/>
<rect width="23.9433" height="15.7128" transform="translate(19.9648 470.742)" fill="black"/>
<rect width="11.9716" height="37.4113" transform="translate(19.9648 449.047)" fill="black"/>
<rect width="205.014" height="30.6773" transform="translate(5 443.062)" fill="black"/>
<g clip-path="url(#clip0_1633_27054)">
<g clip-path="url(#clip1_1633_27054)">
<rect width="19.4539" height="29.1809" transform="translate(19.9648 438.57)" fill="#99FF00"/>
<rect width="23.9433" height="15.7128" transform="translate(19.9648 470.742)" fill="#99FF00"/>
<rect width="11.9716" height="37.4113" transform="translate(19.9648 449.047)" fill="#99FF00"/>
<rect width="32.922" height="18.7057" transform="translate(10.9863 449.047)" fill="#99FF00"/>
</g>
<g clip-path="url(#clip2_1633_27054)">
<rect width="18.7057" height="37.4113" transform="translate(46.9004 449.047)" fill="#99FF00"/>
<rect width="37.4113" height="18.7057" transform="translate(46.9004 449.047)" fill="#99FF00"/>
<rect width="2.99291" height="14.2163" transform="translate(65.6055 456.531)" fill="black"/>
<rect width="37.4113" height="15.7128" transform="translate(46.9004 470.742)" fill="#99FF00"/>
</g>
<g clip-path="url(#clip3_1633_27054)">
<rect width="18.7057" height="37.4113" transform="translate(87.3047 449.047)" fill="#99FF00"/>
<rect width="59.8582" height="12.7199" transform="translate(87.3047 455.031)" fill="#99FF00"/>
<rect width="16.461" height="37.4113" transform="translate(109.004 449.047)" fill="#99FF00"/>
<rect width="18.7057" height="37.4113" transform="translate(128.457 449.047)" fill="#99FF00"/>
</g>
<g clip-path="url(#clip4_1633_27054)">
<rect width="19.4539" height="46.3901" transform="translate(150.156 449.047)" fill="#99FF00"/>
<rect width="37.4113" height="37.4113" transform="translate(150.156 449.047)" fill="#99FF00"/>
<rect width="2.99291" height="15.7128" transform="translate(167.365 456.531)" fill="black"/>
</g>
<g clip-path="url(#clip5_1633_27054)">
<rect width="19.4539" height="47.8865" transform="translate(190.561 438.57)" fill="#99FF00"/>
</g>
</g>
<defs>
<clipPath id="clip0_1633_27054">
<rect width="199.028" height="68.8369" fill="white" transform="translate(10.9863 432.586)"/>
</clipPath>
<clipPath id="clip1_1633_27054">
<rect width="32.922" height="68.8369" fill="white" transform="translate(10.9863 432.586)"/>
</clipPath>
<clipPath id="clip2_1633_27054">
<rect width="37.4113" height="68.8369" fill="white" transform="translate(46.9004 432.586)"/>
</clipPath>
<clipPath id="clip3_1633_27054">
<rect width="59.8582" height="68.8369" fill="white" transform="translate(87.3047 432.586)"/>
</clipPath>
<clipPath id="clip4_1633_27054">
<rect width="37.4113" height="68.8369" fill="white" transform="translate(150.156 432.586)"/>
</clipPath>
<clipPath id="clip5_1633_27054">
<rect width="19.4539" height="68.8369" fill="white" transform="translate(190.561 432.586)"/>
</clipPath>
</defs>
</svg>
