<svg version="1.2" xmlns="http://www.w3.org/2000/svg" viewBox="0 0 221 338" width="221" height="338">
	<defs>
		<clipPath clipPathUnits="userSpaceOnUse" id="cp1">
			<path d="m10.99 256.59h199.02v68.83h-199.02z"/>
		</clipPath>
		<clipPath clipPathUnits="userSpaceOnUse" id="cp2">
			<path d="m10.99 256.59h32.92v68.83h-32.92z"/>
		</clipPath>
		<clipPath clipPathUnits="userSpaceOnUse" id="cp3">
			<path d="m46.9 256.59h37.41v68.83h-37.41z"/>
		</clipPath>
		<clipPath clipPathUnits="userSpaceOnUse" id="cp4">
			<path d="m87.3 256.59h59.86v68.83h-59.86z"/>
		</clipPath>
		<clipPath clipPathUnits="userSpaceOnUse" id="cp5">
			<path d="m150.16 256.59h37.41v68.83h-37.41z"/>
		</clipPath>
		<clipPath clipPathUnits="userSpaceOnUse" id="cp6">
			<path d="m190.56 256.59h19.45v68.83h-19.45z"/>
		</clipPath>
	</defs>
	<style>
		.s0 { fill: #000000 } 
		.s1 { fill: #00ff00 } 
		.s2 { fill: #00ba00 } 
		.s3 { fill: #99cc00 } 
		.s4 { fill: #99ff00 } 
	</style>
	<path class="s0" d="m110.5 58.71v-47.56l-31.71 26.66v13.69z"/>
	<path class="s0" d="m110.5 58.71v-47.56l31.71 26.66v13.69z"/>
	<path class="s0" d="m70.38 46.1l40.12-15.86v38.68l-40.12-7.69z"/>
	<path class="s0" d="m150.62 46.1l-40.12-15.86v38.68l40.12-7.69z"/>
	<path class="s0" d="m110.5 85.02l-52.61-13.7v-8.64l12.61-10.33 40-13.94z"/>
	<path class="s0" d="m110.5 85.02l52.61-13.7v-8.64l-12.61-10.33-40-13.94z"/>
	<path class="s0" d="m110.5 43.46l-52.61 18.98v17.05l52.61 13.22z"/>
	<path class="s0" d="m110.5 43.46l52.61 18.98v17.05l-52.61 13.22z"/>
	<path class="s0" d="m49.96 103.75l16.82-6.48 43.72-6.25v21.14h-60.54z"/>
	<path fill-rule="evenodd" class="s0" d="m49.96 104.47h60.54v38.67h-60.54z"/>
	<path class="s0" d="m49.96 143.15h60.54v26.42l-60.54-24.26z"/>
	<path fill-rule="evenodd" class="s0" d="m49.96 135.46h60.54v7.69h-60.54z"/>
	<path class="s0" d="m171.03 103.75l-16.81-6.48-43.72-6.25v21.14h60.53z"/>
	<path fill-rule="evenodd" class="s0" d="m171.03 104.47h-60.53v38.67h60.53z"/>
	<path class="s0" d="m171.03 143.15h-60.53v26.42l60.53-24.26z"/>
	<path fill-rule="evenodd" class="s0" d="m171.03 135.46h-60.53v7.69h60.53z"/>
	<path class="s0" d="m24.98 166.57v-23.54l85.52-28.11v99.69z"/>
	<path class="s0" d="m196.02 166.57v-23.54l-85.52-28.11v99.69z"/>
	<path class="s0" d="m33.39 133.54l77.11-19.46v72.78l-77.11-36.75z"/>
	<path class="s0" d="m187.61 133.54l-77.11-19.46v72.78l77.11-36.75z"/>
	<path class="s1" d="m87.2 40.94l23.3-19.94v30.75l-23.3-5.29z"/>
	<path class="s2" d="m87.2 40.94l23.3-10.57v21.38l-23.3-5.29z"/>
	<path class="s2" d="m87.2 40.94l23.3-10.57v7.2l-23.3 8.89z"/>
	<path class="s1" d="m133.8 40.94l-23.3-19.94v30.75l23.3-5.29z"/>
	<path class="s2" d="m133.8 40.94l-23.3-10.57v21.38l23.3-5.29z"/>
	<path class="s2" d="m133.8 40.94l-23.3-10.57v7.2l23.3 8.89z"/>
	<path class="s2" d="m79.51 49.22l30.99-11.77v24.27l-30.99-5.29z"/>
	<path class="s1" d="m79.51 49.22l30.99-11.77v8.41l-30.99 10.57z"/>
	<path class="s2" d="m141.49 49.22l-30.99-11.77v24.27l30.99-5.29z"/>
	<path class="s1" d="m141.49 49.22l-30.99-11.77v8.41l30.99 10.57z"/>
	<path class="s2" d="m79.51 56.43l30.99-10.57v31.23l-43.72-10.57z"/>
	<path class="s2" d="m79.51 56.43l30.99-10.57v6.01l-43.72 14.65z"/>
	<path class="s2" d="m141.49 56.43l-30.99-10.57v31.23l43.72-10.57z"/>
	<path class="s2" d="m141.49 56.43l-30.99-10.57v6.01l43.72 14.65z"/>
	<path class="s2" d="m66.78 66.52l43.72-14.65v32.91l-43.72-10.57z"/>
	<path class="s1" d="m66.78 66.52l43.72-14.65v7.68l-43.72 14.66z"/>
	<path class="s2" d="m154.22 66.52l-43.72-14.65v32.91l43.72-10.57z"/>
	<path class="s1" d="m154.22 66.52l-43.72-14.65v7.68l43.72 14.66z"/>
	<path class="s1" d="m33.39 162.49v-13.46l77.11-25.46v82.16z"/>
	<path class="s2" d="m110.5 185.31l-77.11-36.28 77.11-25.46z"/>
	<path class="s1" d="m187.61 162.49v-13.46l-77.11-25.46v82.16z"/>
	<path class="s2" d="m110.5 185.31l77.11-36.28-77.11-25.46z"/>
	<path class="s1" d="m42.76 146.03v-7.2l67.74-16.34v54.53z"/>
	<path class="s2" d="m42.76 138.83l67.74-16.34v44.68z"/>
	<path class="s1" d="m178.24 146.03v-7.2l-67.74-16.34v54.53z"/>
	<path class="s2" d="m178.24 138.83l-67.74-16.34v44.68z"/>
	<path class="s0" d="m66.78 98.46l43.72 14.66v-21.62h-43.72z"/>
	<path class="s0" d="m154.22 98.46l-43.72 14.66v-21.62h43.72z"/>
	<path fill-rule="evenodd" class="s0" d="m66.78 76.37h87.44v17.53h-87.44z"/>
	<path class="s0" d="m66.78 74.21l43.72-14.65v21.61h-43.72z"/>
	<path class="s0" d="m154.22 74.21l-43.72-14.65v21.61h43.72z"/>
	<path class="s0" d="m154.11 89.72q2.27 23.11-42.74 23.39-44.91 0.34-44.59-21.41 0.33-21.7 42.64-23.39 42.2-1.64 44.69 21.41z"/>
	<path class="s3" d="m83.78 90.21c0.55-2.03 3.2-4.57 8.42-6.4 5.21-1.81 11.79-0.71 16.37 0.48 2.06 0.59 1.93 1.19 1.93 1.89 0 0.94-1.2 1.19-1.2 1.19-19.3 5.1-17.5 7.11-22.39 6.39-2.88-0.42-3.7-1.52-3.13-3.55z"/>
	<path class="s3" d="m137.22 90.21c-0.55-2.03-3.2-4.57-8.42-6.4-5.21-1.81-11.79-0.71-16.37 0.48-2.06 0.59-1.93 1.19-1.93 1.89 0 0.94 1.2 1.19 1.2 1.19 19.3 5.1 17.5 7.11 22.39 6.39 2.88-0.42 3.7-1.52 3.13-3.55z"/>
	<path class="s4" d="m135.66 78.2q1.31 14.09-24.66 14.26-25.91 0.2-25.72-13.06 0.19-13.22 24.6-14.26 24.34-1 25.78 13.06z"/>
	<path class="s0" d="m98.52 72.58q-0.62 10.62 11.74 10.75 12.34 0.16 12.25-9.84-0.09-9.98-11.71-10.76-11.6-0.76-12.28 9.85z"/>
	<path class="s0" d="m154.22 74.21v7.68l-43.72-14.5-43.72 14.5v-7.68l43.72-14.65z"/>
	<path class="s0" d="m49.96 131.62h50.93v24.02l-50.93-21.14z"/>
	<path class="s0" d="m49.96 131.62h50.93v24.02l-50.93-21.14z"/>
	<path class="s0" d="m49.96 131.62v2.88l50.93 21.14v-24.02z"/>
	<path fill-rule="evenodd" class="s0" d="m49.96 106.88h50.93v27.62h-50.93z"/>
	<path class="s0" d="m50.26 123.16q-1.14 16.19 21.49 16.38 22.58 0.24 22.41-15-0.16-15.2-21.43-16.39-21.22-1.14-22.47 15.01z"/>
	<path class="s3" d="m95.44 141.86c-0.56-2.04-3.21-4.57-8.43-6.4-5.22-1.81-11.79-0.72-16.38 0.47-2.05 0.6-1.93 1.2-1.93 1.9 0 0.93 1.21 1.18 1.21 1.18 19.31 5.11 17.5 7.11 22.4 6.4 2.88-0.42 3.7-1.52 3.13-3.55z"/>
	<path class="s4" d="m59.62 123.38q-0.9 16.44 16.91 16.64 17.76 0.24 17.64-15.23-0.13-15.43-16.87-16.64-16.7-1.16-17.68 15.23z"/>
	<path class="s0" d="m54.32 123.06q-0.66 9.64 12.45 9.76 13.08 0.14 12.98-8.93-0.09-9.05-12.41-9.76-12.29-0.69-13.02 8.93z"/>
	<path class="s0" d="m101.13 148.14l-51.17-19.16v5.63l51.17 21.27z"/>
	<path fill-rule="evenodd" class="s0" d="m59.57 106.88h5.05v27.62h-5.05z"/>
	<path class="s0" d="m49.96 106.88v13.45l50.93-2.64v-10.81z"/>
	<path fill-rule="evenodd" class="s0" d="m100.89 106.88h9.61v49h-9.61z"/>
	<path class="s0" d="m171.03 131.62h-50.92v24.02l50.92-21.14z"/>
	<path class="s0" d="m171.03 131.62h-50.92v24.02l50.92-21.14z"/>
	<path class="s0" d="m171.03 131.62v2.88l-50.92 21.14v-24.02z"/>
	<path fill-rule="evenodd" class="s0" d="m171.03 106.88h-50.92v27.62h50.92z"/>
	<path class="s0" d="m170.74 123.16q1.14 16.19-21.49 16.38-22.58 0.24-22.42-15 0.17-15.2 21.44-16.39 21.22-1.14 22.47 15.01z"/>
	<path class="s3" d="m125.56 141.86c0.56-2.04 3.21-4.57 8.43-6.4 5.22-1.81 11.79-0.72 16.38 0.47 2.05 0.6 1.92 1.2 1.92 1.9 0 0.93-1.2 1.18-1.2 1.18-19.31 5.11-17.5 7.11-22.4 6.4-2.88-0.42-3.7-1.52-3.13-3.55z"/>
	<path class="s4" d="m161.38 123.38q0.9 16.44-16.91 16.64-17.76 0.24-17.64-15.23 0.13-15.43 16.87-16.64 16.7-1.16 17.68 15.23z"/>
	<path class="s0" d="m166.68 123.06q0.66 9.64-12.45 9.76-13.08 0.14-12.98-8.93 0.09-9.05 12.41-9.76 12.29-0.69 13.02 8.93z"/>
	<path class="s0" d="m119.87 148.14l51.16-19.16v5.63l-51.16 21.27z"/>
	<path fill-rule="evenodd" class="s0" d="m161.43 106.88h-5.05v27.62h5.05z"/>
	<path class="s0" d="m171.03 106.88v13.45l-50.92-2.64v-10.81z"/>
	<path fill-rule="evenodd" class="s0" d="m120.11 106.88h-9.61v49h9.61z"/>
	<path fill-rule="evenodd" class="s1" d="m100.89 104.47h9.61v7.69h-9.61z"/>
	<path class="s1" d="m60.05 108.08l16.65-5.77 33.76-4.8v11.29l-50.41 3.36z"/>
	<path class="s2" d="m110.51 112.16v-14.65l-3.61 2.64v12.01z"/>
	<path class="s2" d="m76.7 102.31l-16.65 5.77 46.79-4.33 3.62-6.24z"/>
	<path fill-rule="evenodd" class="s1" d="m100.89 104.47h9.61v36.51h-9.61z"/>
	<path fill-rule="evenodd" class="s2" d="m106.9 104.47h3.6v36.51h-3.6z"/>
	<path class="s1" d="m110.5 159.72v-26.42h-9.61v22.58z"/>
	<path class="s2" d="m110.5 133.3v26.42l-3.6-1.44v-24.98z"/>
	<path fill-rule="evenodd" class="s1" d="m120.11 104.47h-9.61v7.69h9.61z"/>
	<path class="s1" d="m160.94 108.08l-16.64-5.77-33.76-4.8v11.29l50.4 3.36z"/>
	<path class="s2" d="m110.49 112.16v-14.65l3.61 2.64v12.01z"/>
	<path class="s2" d="m144.3 102.31l16.64 5.77-46.78-4.33-3.62-6.24z"/>
	<path fill-rule="evenodd" class="s1" d="m120.11 104.47h-9.61v36.51h9.61z"/>
	<path fill-rule="evenodd" class="s2" d="m114.1 104.47h-3.6v36.51h3.6z"/>
	<path class="s1" d="m110.5 159.72v-26.42h9.61v22.58z"/>
	<path class="s2" d="m110.5 133.3v26.42l3.6-1.44v-24.98z"/>
	<path class="s0" d="m15.27 328.68v-7.2h1.6v7.2zm-1.15-3.73v-1.36h3.9v1.36zm7.03 3.85q-0.83-0.01-1.48-0.34-0.64-0.35-1-0.95-0.37-0.61-0.37-1.38 0-0.76 0.36-1.36 0.36-0.6 0.98-0.95 0.62-0.35 1.39-0.35 0.76 0 1.33 0.33 0.58 0.32 0.91 0.9 0.33 0.57 0.33 1.32 0 0.14-0.02 0.29-0.01 0.15-0.05 0.35l-4.39 0.01v-1.1l3.71-0.01-0.69 0.46q-0.02-0.44-0.14-0.72-0.13-0.3-0.38-0.44-0.24-0.16-0.59-0.16-0.38 0-0.66 0.18-0.28 0.17-0.43 0.48-0.15 0.31-0.15 0.76 0 0.45 0.16 0.78 0.16 0.31 0.46 0.49 0.3 0.17 0.71 0.17 0.38 0 0.68-0.13 0.3-0.13 0.53-0.39l0.88 0.88q-0.37 0.43-0.91 0.65-0.53 0.23-1.17 0.23zm3.22-0.12v-5.09h1.61v5.09zm3.26 0v-2.98q0-0.38-0.25-0.59-0.23-0.22-0.57-0.22-0.24 0-0.43 0.1-0.19 0.1-0.31 0.27-0.1 0.18-0.1 0.44l-0.62-0.27q0-0.61 0.26-1.04 0.27-0.43 0.72-0.66 0.45-0.25 1.01-0.25 0.54 0 0.96 0.25 0.42 0.24 0.68 0.66 0.25 0.44 0.25 1.03v3.26zm3.26 0v-2.98q0-0.38-0.25-0.59-0.23-0.22-0.57-0.22-0.24 0-0.43 0.1-0.19 0.1-0.3 0.27-0.11 0.18-0.11 0.44l-0.92-0.12q0.02-0.65 0.3-1.11 0.3-0.47 0.77-0.72 0.48-0.27 1.08-0.27 0.58 0 1.03 0.26 0.46 0.24 0.73 0.7 0.27 0.45 0.27 1.09v3.15zm5.56 0.1q-0.51 0-0.94-0.2-0.43-0.19-0.7-0.54-0.28-0.36-0.32-0.81v-2.14q0.04-0.45 0.32-0.82 0.27-0.37 0.7-0.58 0.43-0.21 0.94-0.21 0.72 0 1.28 0.35 0.56 0.35 0.88 0.94 0.32 0.6 0.32 1.36 0 0.77-0.32 1.37-0.32 0.59-0.88 0.94-0.56 0.34-1.28 0.34zm-2.93 2.05v-7.24h1.6v1.31l-0.26 1.23 0.24 1.24v3.46zm2.64-3.49q0.35 0 0.6-0.16 0.26-0.16 0.41-0.43 0.14-0.27 0.14-0.62 0-0.35-0.14-0.62-0.15-0.28-0.41-0.42-0.25-0.16-0.59-0.16-0.34 0-0.6 0.16-0.25 0.14-0.4 0.42-0.14 0.27-0.14 0.62 0 0.35 0.13 0.62 0.15 0.27 0.41 0.43 0.26 0.16 0.59 0.16zm3.59 1.34v-7.61h1.6v7.61zm3.74 0.12q-0.41 0-0.68-0.29-0.27-0.28-0.27-0.68 0-0.42 0.27-0.69 0.27-0.28 0.68-0.28 0.42 0 0.68 0.28 0.27 0.27 0.27 0.69 0 0.4-0.27 0.68-0.26 0.29-0.68 0.29zm2.49-0.12v-5.53q0-0.62 0.27-1.11 0.28-0.5 0.78-0.79 0.51-0.29 1.2-0.29 0.52 0 0.91 0.18 0.4 0.16 0.69 0.47l-1 1.01q-0.11-0.11-0.24-0.16-0.13-0.06-0.31-0.07-0.32 0-0.51 0.19-0.19 0.19-0.19 0.52v5.58zm-1.12-3.73v-1.36h4.19v1.36zm7.3 3.85q-0.71 0-1.25-0.29-0.54-0.29-0.84-0.79-0.3-0.52-0.3-1.18v-2.95h1.6v2.93q0 0.26 0.08 0.45 0.1 0.19 0.28 0.3 0.17 0.1 0.43 0.1 0.35 0 0.56-0.22 0.21-0.23 0.21-0.63v-2.93h1.6v2.94q0 0.67-0.3 1.19-0.3 0.5-0.84 0.79-0.53 0.29-1.23 0.29zm6.74-0.12v-2.9q0-0.4-0.25-0.64-0.24-0.25-0.62-0.25-0.26 0-0.46 0.11-0.2 0.11-0.31 0.32-0.12 0.2-0.12 0.46l-0.62-0.31q0-0.59 0.27-1.04 0.26-0.45 0.72-0.69 0.47-0.26 1.06-0.26 0.56 0 0.99 0.28 0.44 0.26 0.69 0.7 0.25 0.44 0.25 0.96v3.26zm-3.36 0v-5.09h1.6v5.09z"/>
	<path fill-rule="evenodd" class="s0" d="m13.98 256.59h31.42v53.87h-31.42z"/>
	<path fill-rule="evenodd" class="s0" d="m184.57 256.59h31.43v53.87h-31.43z"/>
	<path fill-rule="evenodd" class="s0" d="m144.17 273.05h31.43v52.37h-31.43z"/>
	<path fill-rule="evenodd" class="s0" d="m13.98 273.05h202.02v43.39h-202.02z"/>
	<path fill-rule="evenodd" class="s0" d="m19.96 294.74h23.95v15.71h-23.95z"/>
	<path fill-rule="evenodd" class="s0" d="m19.96 273.05h11.98v37.41h-11.98z"/>
	<path fill-rule="evenodd" class="s0" d="m5 267.06h205.01v30.68h-205.01z"/>
	<g id="Clip-Path" clip-path="url(#cp1)">
		<g>
			<g id="Clip-Path" clip-path="url(#cp2)">
				<g>
					<path fill-rule="evenodd" class="s4" d="m19.96 262.57h19.46v29.18h-19.46z"/>
					<path fill-rule="evenodd" class="s4" d="m19.96 294.74h23.95v15.71h-23.95z"/>
					<path fill-rule="evenodd" class="s4" d="m19.96 273.05h11.98v37.41h-11.98z"/>
					<path fill-rule="evenodd" class="s4" d="m10.99 273.05h32.92v18.7h-32.92z"/>
				</g>
			</g>
			<g id="Clip-Path" clip-path="url(#cp3)">
				<g>
					<path fill-rule="evenodd" class="s4" d="m46.9 273.05h18.71v37.41h-18.71z"/>
					<path fill-rule="evenodd" class="s4" d="m46.9 273.05h37.41v18.7h-37.41z"/>
					<path fill-rule="evenodd" class="s0" d="m65.61 280.53h2.99v14.22h-2.99z"/>
					<path fill-rule="evenodd" class="s4" d="m46.9 294.74h37.41v15.71h-37.41z"/>
				</g>
			</g>
			<g id="Clip-Path" clip-path="url(#cp4)">
				<g>
					<path fill-rule="evenodd" class="s4" d="m87.3 273.05h18.71v37.41h-18.71z"/>
					<path fill-rule="evenodd" class="s4" d="m87.3 279.03h59.86v12.72h-59.86z"/>
					<path fill-rule="evenodd" class="s4" d="m109 273.05h16.47v37.41h-16.47z"/>
					<path fill-rule="evenodd" class="s4" d="m128.46 273.05h18.7v37.41h-18.7z"/>
				</g>
			</g>
			<g id="Clip-Path" clip-path="url(#cp5)">
				<g>
					<path fill-rule="evenodd" class="s4" d="m150.16 273.05h19.45v46.39h-19.45z"/>
					<path fill-rule="evenodd" class="s4" d="m150.16 273.05h37.41v37.41h-37.41z"/>
					<path fill-rule="evenodd" class="s0" d="m167.37 280.53h2.99v15.71h-2.99z"/>
				</g>
			</g>
			<g id="Clip-Path" clip-path="url(#cp6)">
				<g>
					<path fill-rule="evenodd" class="s4" d="m190.56 262.57h19.45v47.89h-19.45z"/>
				</g>
			</g>
		</g>
	</g>
</svg>