<svg width="500" height="204" viewBox="0 0 500 204" fill="none" xmlns="http://www.w3.org/2000/svg">
<g clip-path="url(#clip0_1563_16217)">
<path d="M85.5017 47.7115V0.148438L53.793 26.8126V40.505L85.5017 47.7115Z" fill="black"/>
<path d="M85.5022 47.7115V0.148438L117.211 26.8126V40.505L85.5022 47.7115Z" fill="black"/>
<path d="M45.3828 35.0965L85.4991 19.2422V57.9172L45.3828 50.2302V35.0965Z" fill="black"/>
<path d="M125.617 35.0965L85.5009 19.2422V57.9172L125.617 50.2302V35.0965Z" fill="black"/>
<path d="M85.4982 74.0162L32.8906 60.3238V51.676L45.502 41.3467L85.4982 27.4141V74.0162Z" fill="black"/>
<path d="M85.5018 74.0162L138.109 60.3238V51.676L125.498 41.3467L85.5018 27.4141V74.0162Z" fill="black"/>
<path d="M85.4982 32.4609L32.8906 51.4381V68.4935L85.4982 81.7055V32.4609Z" fill="black"/>
<path d="M85.4979 32.4609L138.105 51.4381V68.4935L85.4979 81.7055V32.4609Z" fill="black"/>
<path d="M24.9648 92.755L41.7801 86.2691L85.4996 80.0234V101.163H24.9648V92.755Z" fill="black"/>
<rect width="60.5348" height="38.675" transform="translate(24.9648 93.4688)" fill="black"/>
<path d="M24.9648 132.148H85.4973L85.4996 158.572L24.9648 134.31V132.148Z" fill="black"/>
<rect width="60.5348" height="7.68696" transform="translate(24.9648 124.461)" fill="black"/>
<path d="M146.035 92.755L129.22 86.2691L85.5004 80.0234V101.163H146.035V92.755Z" fill="black"/>
<rect width="60.5348" height="38.675" transform="matrix(-1 0 0 1 146.035 93.4688)" fill="black"/>
<path d="M146.035 132.148H85.5027L85.5004 158.572L146.035 134.31V132.148Z" fill="black"/>
<rect width="60.5348" height="7.68696" transform="matrix(-1 0 0 1 146.035 124.461)" fill="black"/>
<path d="M-0.015625 155.569V132.027L85.5018 103.922V203.612L-0.015625 155.569Z" fill="black"/>
<path d="M171.02 155.569V132.027L85.5021 103.922V203.612L171.02 155.569Z" fill="black"/>
<path d="M8.39062 122.536L85.5004 103.078V175.864L8.39062 139.111V122.536Z" fill="black"/>
<path d="M162.609 122.536L85.4996 103.078V175.864L162.609 139.111V122.536Z" fill="black"/>
<path d="M62.1992 29.938L85.5003 10V40.7478L62.1992 35.463V29.938Z" fill="#00FF00"/>
<path d="M62.1992 29.9368L85.5003 19.3672V40.7465L62.1992 35.4618V29.9368Z" fill="#00BA00"/>
<path d="M62.1992 29.9368L85.5003 19.3672V26.5737L62.1992 35.4618V29.9368Z" fill="#00BA00"/>
<path d="M108.805 29.938L85.5036 10V40.7478L108.805 35.463V29.938Z" fill="#00FF00"/>
<path d="M108.805 29.9368L85.5036 19.3672V40.7465L108.805 35.4618V29.9368Z" fill="#00BA00"/>
<path d="M108.805 29.9368L85.5036 19.3672V26.5737L108.805 35.4618V29.9368Z" fill="#00BA00"/>
<path d="M54.5117 38.2238L85.4998 26.4531V50.7151L54.5117 45.4303V38.2238Z" fill="#00BA00"/>
<path d="M54.5117 38.2238L85.4998 26.4531V34.8607L54.5117 45.4303V38.2238Z" fill="#00FF00"/>
<path d="M116.488 38.2238L85.5002 26.4531V50.7151L116.488 45.4303V38.2238Z" fill="#00BA00"/>
<path d="M116.488 38.2238L85.5002 26.4531V34.8607L116.488 45.4303V38.2238Z" fill="#00FF00"/>
<path d="M54.5128 45.4289L85.5008 34.8594V66.0876L41.7812 55.5181L54.5128 45.4289Z" fill="#00BA00"/>
<path d="M54.5128 45.4289L85.5008 34.8594V40.8648L41.7812 55.5181L54.5128 45.4289Z" fill="#00BA00"/>
<path d="M116.487 45.4289L85.4992 34.8594V66.0876L129.219 55.5181L116.487 45.4289Z" fill="#00BA00"/>
<path d="M116.487 45.4289L85.4992 34.8594V40.8648L129.219 55.5181L116.487 45.4289Z" fill="#00BA00"/>
<path d="M41.7812 55.5204L85.5008 40.8672V73.777L41.7812 63.2074V55.5204Z" fill="#00BA00"/>
<path d="M41.7812 55.5204L85.5008 40.8672V48.5541L41.7812 63.2074V55.5204Z" fill="#00FF00"/>
<path d="M129.215 55.5204L85.4953 40.8672V73.777L129.215 63.2074V55.5204Z" fill="#00BA00"/>
<path d="M129.215 55.5204L85.4953 40.8672V48.5541L129.215 63.2074V55.5204Z" fill="#00FF00"/>
<path d="M8.39062 151.486V138.033L85.5004 112.57V194.725L8.39062 151.486Z" fill="#00FF00"/>
<path d="M85.5004 174.306L8.39062 138.033L85.5004 112.57V174.306Z" fill="#00BA00"/>
<path d="M162.613 151.486V138.033L85.5035 112.57V194.725L162.613 151.486Z" fill="#00FF00"/>
<path d="M85.5035 174.306L162.613 138.033L85.5035 112.57V174.306Z" fill="#00BA00"/>
<path d="M17.7578 135.033V127.827L85.4991 111.492V166.022L17.7578 135.033Z" fill="#00FF00"/>
<path d="M17.7578 127.827L85.4989 111.492V156.173L17.7578 127.827Z" fill="#00BA00"/>
<path d="M153.242 135.033V127.827L85.5009 111.492V166.022L153.242 135.033Z" fill="#00FF00"/>
<path d="M153.242 127.827L85.5011 111.492V156.173L153.242 127.827Z" fill="#00BA00"/>
<path d="M41.7814 87.4639L85.501 102.117V80.4976H41.7812L41.7814 87.4639Z" fill="black"/>
<path d="M129.219 87.4639L85.499 102.117V80.4976H129.219L129.219 87.4639Z" fill="black"/>
<rect width="87.4391" height="17.5359" transform="translate(41.7812 65.3672)" fill="black"/>
<path d="M41.7814 63.2079L85.501 48.5547V70.1743H41.7812L41.7814 63.2079Z" fill="black"/>
<path d="M129.219 63.2079L85.499 48.5547V70.1743H129.219L129.219 63.2079Z" fill="black"/>
<path d="M129.111 78.7198C130.626 94.1263 116.378 101.924 86.3672 102.112C56.4284 102.338 41.5672 95.1998 41.7836 80.6974C42 66.2327 56.2119 58.4353 84.4193 57.3053C112.555 56.2129 127.452 63.3511 129.111 78.7198Z" fill="black"/>
<path d="M58.7763 79.2087C59.329 77.177 61.9765 74.6384 67.1972 72.8131C72.4071 70.9993 78.9871 72.0958 83.5741 73.2864C85.6262 73.8832 85.5019 74.4802 85.5028 75.1814C85.504 76.1169 84.3007 76.3661 84.3007 76.3661C65.0001 81.4713 66.8037 83.4756 61.9116 82.7618C59.0298 82.3413 58.2057 81.2426 58.7763 79.2087Z" fill="#99CC00"/>
<path d="M112.224 79.2087C111.671 77.177 109.023 74.6384 103.803 72.8131C98.5929 70.9993 92.0129 72.0958 87.4259 73.2864C85.3738 73.8832 85.4981 74.4802 85.4972 75.1814C85.496 76.1169 86.6993 76.3661 86.6993 76.3661C106 81.4713 104.196 83.4756 109.088 82.7618C111.97 82.3413 112.794 81.2426 112.224 79.2087Z" fill="#99CC00"/>
<path d="M110.66 67.1973C111.534 76.5895 103.314 81.3429 86 81.4578C68.7276 81.5955 60.1538 77.2439 60.2787 68.4029C60.4035 59.5848 68.6027 54.8314 84.8762 54.1424C101.108 53.4765 109.703 57.8281 110.66 67.1973Z" fill="#99FF00"/>
<path d="M73.52 61.5757C73.1038 68.661 77.0181 72.2469 85.2628 72.3335C93.4878 72.4375 97.5705 69.1547 97.5111 62.4851C97.4516 55.8329 93.5472 52.247 85.798 51.7272C78.0685 51.2249 73.9758 54.5077 73.52 61.5757Z" fill="black"/>
<path d="M129.22 63.2079V70.8949L85.5008 56.3915L41.7812 70.8949V63.2079L85.5008 48.5547L129.22 63.2079Z" fill="black"/>
<path d="M24.9648 120.617H75.8909V144.639L24.9648 123.5V120.617Z" fill="black"/>
<path d="M24.9648 120.617H75.8909V144.639L24.9648 123.5V120.617Z" fill="black"/>
<path d="M24.9648 120.617V123.5L75.8909 144.639V120.617H24.9648Z" fill="black"/>
<rect width="50.9261" height="27.625" transform="translate(24.9648 95.875)" fill="black"/>
<path d="M25.2592 112.156C24.4975 122.949 31.6607 128.411 46.7486 128.543C61.8003 128.702 69.2717 123.701 69.1629 113.542C69.0541 103.409 61.9091 97.9462 47.7279 97.1546C33.5829 96.3893 26.0934 101.39 25.2592 112.156Z" fill="black"/>
<path d="M70.4363 130.857C69.8809 128.825 67.2302 126.287 62.0072 124.462C56.7949 122.648 50.2163 123.744 45.6309 124.935C43.5795 125.532 43.7046 126.129 43.7046 126.83C43.7046 127.765 44.9082 128.015 44.9082 128.015C64.2154 133.12 62.4144 135.124 67.3055 134.41C70.1868 133.99 71.0095 132.891 70.4363 130.857Z" fill="#99CC00"/>
<path d="M34.616 112.383C34.0166 123.34 39.6532 128.886 51.5257 129.02C63.3696 129.18 69.2488 124.104 69.1631 113.789C69.0775 103.501 63.4552 97.9556 52.2962 97.1519C41.1658 96.3749 35.2724 101.452 34.616 112.383Z" fill="#99FF00"/>
<path d="M29.3227 112.061C28.8815 118.487 33.0306 121.74 41.7701 121.818C50.4885 121.912 54.8163 118.935 54.7532 112.886C54.6902 106.852 50.5516 103.6 42.3373 103.129C34.1441 102.673 29.8059 105.65 29.3227 112.061Z" fill="black"/>
<path d="M76.1293 137.143L24.9648 117.977V123.607L76.1293 144.881V137.143Z" fill="black"/>
<rect width="5.04457" height="27.625" transform="translate(34.5742 95.875)" fill="black"/>
<path d="M24.9648 95.875V109.327L75.8905 106.685V95.875H24.9648Z" fill="black"/>
<rect width="9.6087" height="49.0043" transform="translate(75.8906 95.875)" fill="black"/>
<path d="M146.035 120.617H95.1091V144.639L146.035 123.5V120.617Z" fill="black"/>
<path d="M146.035 120.617H95.1091V144.639L146.035 123.5V120.617Z" fill="black"/>
<path d="M146.035 120.617V123.5L95.1091 144.639V120.617H146.035Z" fill="black"/>
<rect width="50.9261" height="27.625" transform="matrix(-1 0 0 1 146.035 95.875)" fill="black"/>
<path d="M145.741 112.156C146.502 122.949 139.339 128.411 124.251 128.543C109.2 128.702 101.728 123.701 101.837 113.542C101.946 103.409 109.091 97.9462 123.272 97.1546C137.417 96.3893 144.907 101.39 145.741 112.156Z" fill="black"/>
<path d="M100.564 130.857C101.119 128.825 103.77 126.287 108.993 124.462C114.205 122.648 120.784 123.744 125.369 124.935C127.421 125.532 127.295 126.129 127.295 126.83C127.295 127.765 126.092 128.015 126.092 128.015C106.785 133.12 108.586 135.124 103.695 134.41C100.813 133.99 99.9905 132.891 100.564 130.857Z" fill="#99CC00"/>
<path d="M136.384 112.383C136.983 123.34 131.347 128.886 119.474 129.02C107.63 129.18 101.751 124.104 101.837 113.789C101.922 103.501 107.545 97.9556 118.704 97.1519C129.834 96.3749 135.728 101.452 136.384 112.383Z" fill="#99FF00"/>
<path d="M141.677 112.061C142.119 118.487 137.969 121.74 129.23 121.818C120.511 121.912 116.184 118.935 116.247 112.886C116.31 106.852 120.448 103.6 128.663 103.129C136.856 102.673 141.194 105.65 141.677 112.061Z" fill="black"/>
<path d="M94.8707 137.143L146.035 117.977V123.607L94.8707 144.881V137.143Z" fill="black"/>
<rect width="5.04457" height="27.625" transform="matrix(-1 0 0 1 136.426 95.875)" fill="black"/>
<path d="M146.035 95.875V109.327L95.1095 106.685V95.875H146.035Z" fill="black"/>
<rect width="9.6087" height="49.0043" transform="matrix(-1 0 0 1 95.1094 95.875)" fill="black"/>
<rect width="9.6087" height="7.68696" transform="translate(75.8906 93.4688)" fill="#00FF00"/>
<path d="M35.0547 97.0775L51.6957 91.3122L85.4596 86.5078V97.7981L35.0547 101.161V97.0775Z" fill="#00FF00"/>
<path d="M85.5155 101.161V86.5078L81.8984 89.1502V101.161H85.5155Z" fill="#00BA00"/>
<path d="M51.6957 91.3122L35.0547 97.0774L81.8425 92.7535L85.4601 86.5078L51.6957 91.3122Z" fill="#00BA00"/>
<rect width="9.6087" height="36.513" transform="translate(75.8906 93.4688)" fill="#00FF00"/>
<rect width="3.60326" height="36.513" transform="translate(81.8984 93.4688)" fill="#00BA00"/>
<path d="M85.4992 148.721L85.4993 122.297H75.8906V144.877L85.4992 148.721Z" fill="#00FF00"/>
<path d="M85.5015 122.297V148.721L81.8984 147.279V122.297H85.5015Z" fill="#00BA00"/>
<rect width="9.6087" height="7.68696" transform="matrix(-1 0 0 1 95.1094 93.4688)" fill="#00FF00"/>
<path d="M135.945 97.0775L119.304 91.3122L85.5404 86.5078V97.7981L135.945 101.161V97.0775Z" fill="#00FF00"/>
<path d="M85.4845 101.161V86.5078L89.1016 89.1502V101.161H85.4845Z" fill="#00BA00"/>
<path d="M119.304 91.3122L135.945 97.0774L89.1575 92.7535L85.5399 86.5078L119.304 91.3122Z" fill="#00BA00"/>
<rect width="9.6087" height="36.513" transform="matrix(-1 0 0 1 95.1094 93.4688)" fill="#00FF00"/>
<rect width="3.60326" height="36.513" transform="matrix(-1 0 0 1 89.1016 93.4688)" fill="#00BA00"/>
<path d="M85.5008 148.721L85.5007 122.297H95.1094V144.877L85.5008 148.721Z" fill="#00FF00"/>
<path d="M85.4985 122.297V148.721L89.1016 147.279V122.297H85.4985Z" fill="#00BA00"/>
<path d="M231.722 147L231.722 137.382L233.864 137.382L233.864 147L231.722 147ZM230.182 142.016L230.182 140.196L235.404 140.196L235.404 142.016L230.182 142.016ZM239.571 147.154C238.834 147.154 238.176 147.005 237.597 146.706C237.028 146.398 236.58 145.973 236.253 145.432C235.926 144.891 235.763 144.279 235.763 143.598C235.763 142.917 235.922 142.31 236.239 141.778C236.566 141.237 237.004 140.812 237.555 140.504C238.106 140.196 238.726 140.042 239.417 140.042C240.089 140.042 240.682 140.187 241.195 140.476C241.708 140.765 242.11 141.167 242.399 141.68C242.698 142.193 242.847 142.781 242.847 143.444C242.847 143.565 242.838 143.696 242.819 143.836C242.81 143.967 242.786 144.121 242.749 144.298L236.883 144.312L236.883 142.842L241.839 142.828L240.915 143.444C240.906 143.052 240.845 142.73 240.733 142.478C240.621 142.217 240.453 142.021 240.229 141.89C240.014 141.75 239.748 141.68 239.431 141.68C239.095 141.68 238.801 141.759 238.549 141.918C238.306 142.067 238.115 142.282 237.975 142.562C237.844 142.842 237.779 143.183 237.779 143.584C237.779 143.985 237.849 144.331 237.989 144.62C238.138 144.9 238.344 145.119 238.605 145.278C238.876 145.427 239.193 145.502 239.557 145.502C239.893 145.502 240.196 145.446 240.467 145.334C240.738 145.213 240.976 145.035 241.181 144.802L242.357 145.978C242.021 146.37 241.615 146.664 241.139 146.86C240.663 147.056 240.14 147.154 239.571 147.154ZM243.881 147L243.881 140.196L246.023 140.196L246.023 147L243.881 147ZM248.235 147L248.235 143.024C248.235 142.679 248.128 142.413 247.913 142.226C247.708 142.03 247.451 141.932 247.143 141.932C246.928 141.932 246.737 141.979 246.569 142.072C246.401 142.156 246.266 142.277 246.163 142.436C246.07 142.595 246.023 142.791 246.023 143.024L245.197 142.66C245.197 142.119 245.314 141.657 245.547 141.274C245.78 140.882 246.098 140.583 246.499 140.378C246.9 140.163 247.353 140.056 247.857 140.056C248.333 140.056 248.758 140.163 249.131 140.378C249.514 140.593 249.817 140.891 250.041 141.274C250.265 141.657 250.377 142.114 250.377 142.646L250.377 147L248.235 147ZM252.589 147L252.589 143.024C252.589 142.679 252.482 142.413 252.267 142.226C252.062 142.03 251.805 141.932 251.497 141.932C251.282 141.932 251.091 141.979 250.923 142.072C250.755 142.156 250.62 142.277 250.517 142.436C250.424 142.595 250.377 142.791 250.377 143.024L249.145 142.856C249.164 142.277 249.299 141.783 249.551 141.372C249.812 140.952 250.153 140.63 250.573 140.406C251.002 140.173 251.483 140.056 252.015 140.056C252.538 140.056 253 140.168 253.401 140.392C253.812 140.607 254.134 140.919 254.367 141.33C254.61 141.731 254.731 142.217 254.731 142.786L254.731 147L252.589 147ZM260.024 147.14C259.566 147.14 259.146 147.051 258.764 146.874C258.381 146.697 258.068 146.454 257.826 146.146C257.583 145.829 257.443 145.469 257.406 145.068L257.406 142.198C257.443 141.797 257.583 141.433 257.826 141.106C258.068 140.779 258.381 140.523 258.764 140.336C259.146 140.149 259.566 140.056 260.024 140.056C260.668 140.056 261.237 140.21 261.732 140.518C262.236 140.826 262.628 141.246 262.908 141.778C263.197 142.31 263.342 142.917 263.342 143.598C263.342 144.279 263.197 144.886 262.908 145.418C262.628 145.95 262.236 146.37 261.732 146.678C261.237 146.986 260.668 147.14 260.024 147.14ZM256.104 149.87L256.104 140.196L258.246 140.196L258.246 141.946L257.896 143.598L258.218 145.25L258.218 149.87L256.104 149.87ZM259.632 145.208C259.94 145.208 260.206 145.138 260.43 144.998C260.663 144.858 260.845 144.667 260.976 144.424C261.106 144.181 261.172 143.906 261.172 143.598C261.172 143.281 261.106 143.001 260.976 142.758C260.845 142.515 260.663 142.329 260.43 142.198C260.206 142.058 259.944 141.988 259.646 141.988C259.347 141.988 259.081 142.058 258.848 142.198C258.624 142.329 258.446 142.515 258.316 142.758C258.185 143.001 258.12 143.281 258.12 143.598C258.12 143.906 258.18 144.181 258.302 144.424C258.432 144.667 258.614 144.858 258.848 144.998C259.081 145.138 259.342 145.208 259.632 145.208ZM264.43 147L264.43 136.836L266.572 136.836L266.572 147L264.43 147ZM269.424 147.154C269.06 147.154 268.757 147.028 268.514 146.776C268.272 146.524 268.15 146.221 268.15 145.866C268.15 145.493 268.272 145.185 268.514 144.942C268.757 144.69 269.06 144.564 269.424 144.564C269.798 144.564 270.101 144.69 270.334 144.942C270.577 145.185 270.698 145.493 270.698 145.866C270.698 146.221 270.577 146.524 270.334 146.776C270.101 147.028 269.798 147.154 269.424 147.154ZM272.749 147L272.749 139.608C272.749 139.057 272.87 138.563 273.113 138.124C273.365 137.676 273.715 137.326 274.163 137.074C274.611 136.813 275.143 136.682 275.759 136.682C276.226 136.682 276.632 136.761 276.977 136.92C277.332 137.069 277.64 137.279 277.901 137.55L276.557 138.894C276.464 138.801 276.356 138.731 276.235 138.684C276.123 138.628 275.988 138.6 275.829 138.6C275.54 138.6 275.311 138.684 275.143 138.852C274.975 139.02 274.891 139.249 274.891 139.538L274.891 147L272.749 147ZM271.251 142.016L271.251 140.196L276.851 140.196L276.851 142.016L271.251 142.016ZM281.003 147.154C280.377 147.154 279.822 147.028 279.337 146.776C278.861 146.515 278.487 146.16 278.217 145.712C277.946 145.255 277.811 144.732 277.811 144.144L277.811 140.196L279.953 140.196L279.953 144.116C279.953 144.349 279.99 144.55 280.065 144.718C280.149 144.886 280.27 145.017 280.429 145.11C280.587 145.203 280.779 145.25 281.003 145.25C281.32 145.25 281.572 145.152 281.759 144.956C281.945 144.751 282.039 144.471 282.039 144.116L282.039 140.196L284.181 140.196L284.181 144.13C284.181 144.727 284.045 145.255 283.775 145.712C283.504 146.16 283.131 146.515 282.655 146.776C282.179 147.028 281.628 147.154 281.003 147.154ZM290.02 147L290.02 143.122C290.02 142.767 289.908 142.483 289.684 142.268C289.469 142.044 289.194 141.932 288.858 141.932C288.624 141.932 288.419 141.983 288.242 142.086C288.064 142.179 287.924 142.319 287.822 142.506C287.719 142.683 287.668 142.889 287.668 143.122L286.842 142.716C286.842 142.184 286.958 141.717 287.192 141.316C287.425 140.915 287.747 140.607 288.158 140.392C288.578 140.168 289.049 140.056 289.572 140.056C290.076 140.056 290.519 140.177 290.902 140.42C291.294 140.653 291.602 140.966 291.826 141.358C292.05 141.75 292.162 142.179 292.162 142.646L292.162 147L290.02 147ZM285.526 147L285.526 140.196L287.668 140.196L287.668 147L285.526 147Z" fill="black"/>
<rect width="42" height="72" transform="translate(230 50)" fill="black"/>
<rect width="42" height="72" transform="translate(458 50)" fill="black"/>
<rect width="42" height="70" transform="translate(404 72)" fill="black"/>
<rect width="270" height="58" transform="translate(230 72)" fill="black"/>
<rect width="32" height="21" transform="translate(238 101)" fill="black"/>
<rect width="16" height="50" transform="translate(238 72)" fill="black"/>
<rect width="274" height="41" transform="translate(218 64)" fill="black"/>
<g clip-path="url(#clip1_1563_16217)">
<rect width="26" height="39" transform="translate(238 58)" fill="#99FF00"/>
<rect width="32" height="21" transform="translate(238 101)" fill="#99FF00"/>
<rect width="16" height="50" transform="translate(238 72)" fill="#99FF00"/>
<rect width="44" height="25" transform="translate(226 72)" fill="#99FF00"/>
<rect width="25" height="50" transform="translate(274 72)" fill="#99FF00"/>
<rect width="50" height="25" transform="translate(274 72)" fill="#99FF00"/>
<rect width="4" height="19" transform="translate(299 82)" fill="black"/>
<rect width="50" height="21" transform="translate(274 101)" fill="#99FF00"/>
<rect width="25" height="50" transform="translate(328 72)" fill="#99FF00"/>
<rect width="80" height="17" transform="translate(328 80)" fill="#99FF00"/>
<rect width="22" height="50" transform="translate(357 72)" fill="#99FF00"/>
<rect width="25" height="50" transform="translate(383 72)" fill="#99FF00"/>
<rect width="26" height="62" transform="translate(412 72)" fill="#99FF00"/>
<rect width="50" height="50" transform="translate(412 72)" fill="#99FF00"/>
<rect width="4" height="21" transform="translate(435 82)" fill="black"/>
<g clip-path="url(#clip2_1563_16217)">
<rect width="26" height="64" transform="translate(466 58)" fill="#99FF00"/>
</g>
</g>
</g>
<defs>
<clipPath id="clip0_1563_16217">
<rect width="500" height="204" fill="white"/>
</clipPath>
<clipPath id="clip1_1563_16217">
<rect width="266" height="92" fill="white" transform="translate(226 50)"/>
</clipPath>
<clipPath id="clip2_1563_16217">
<rect width="26" height="92" fill="white" transform="translate(466 50)"/>
</clipPath>
</defs>
</svg>
