<svg width="282" height="101" viewBox="0 0 282 101" fill="none" xmlns="http://www.w3.org/2000/svg">
<path d="M13.722 97.5L13.722 87.882L15.864 87.882L15.864 97.5L13.722 97.5ZM12.182 92.516L12.182 90.696L17.404 90.696L17.404 92.516L12.182 92.516ZM21.5711 97.654C20.8337 97.654 20.1757 97.5047 19.5971 97.206C19.0277 96.898 18.5797 96.4733 18.2531 95.932C17.9264 95.3907 17.7631 94.7793 17.7631 94.098C17.7631 93.4167 17.9217 92.81 18.2391 92.278C18.5657 91.7367 19.0044 91.312 19.5551 91.004C20.1057 90.696 20.7264 90.542 21.4171 90.542C22.0891 90.542 22.6817 90.6867 23.1951 90.976C23.7084 91.2653 24.1097 91.6667 24.3991 92.18C24.6977 92.6933 24.8471 93.2813 24.8471 93.944C24.8471 94.0653 24.8377 94.196 24.8191 94.336C24.8097 94.4667 24.7864 94.6207 24.7491 94.798L18.8831 94.812L18.8831 93.342L23.8391 93.328L22.9151 93.944C22.9057 93.552 22.8451 93.23 22.7331 92.978C22.6211 92.7167 22.4531 92.5207 22.2291 92.39C22.0144 92.25 21.7484 92.18 21.4311 92.18C21.0951 92.18 20.8011 92.2593 20.5491 92.418C20.3064 92.5673 20.1151 92.782 19.9751 93.062C19.8444 93.342 19.7791 93.6827 19.7791 94.084C19.7791 94.4853 19.8491 94.8307 19.9891 95.12C20.1384 95.4 20.3437 95.6193 20.6051 95.778C20.8757 95.9273 21.1931 96.002 21.5571 96.002C21.8931 96.002 22.1964 95.946 22.4671 95.834C22.7377 95.7127 22.9757 95.5353 23.1811 95.302L24.3571 96.478C24.0211 96.87 23.6151 97.164 23.1391 97.36C22.6631 97.556 22.1404 97.654 21.5711 97.654ZM25.881 97.5L25.881 90.696L28.023 90.696L28.023 97.5L25.881 97.5ZM30.235 97.5L30.235 93.524C30.235 93.1787 30.1277 92.9127 29.913 92.726C29.7077 92.53 29.451 92.432 29.143 92.432C28.9283 92.432 28.737 92.4787 28.569 92.572C28.401 92.656 28.2657 92.7773 28.163 92.936C28.0697 93.0947 28.023 93.2907 28.023 93.524L27.197 93.16C27.197 92.6187 27.3137 92.1567 27.547 91.774C27.7803 91.382 28.0977 91.0833 28.499 90.878C28.9003 90.6633 29.353 90.556 29.857 90.556C30.333 90.556 30.7577 90.6633 31.131 90.878C31.5137 91.0927 31.817 91.3913 32.041 91.774C32.265 92.1567 32.377 92.614 32.377 93.146L32.377 97.5L30.235 97.5ZM34.589 97.5L34.589 93.524C34.589 93.1787 34.4817 92.9127 34.267 92.726C34.0617 92.53 33.805 92.432 33.497 92.432C33.2823 92.432 33.091 92.4787 32.923 92.572C32.755 92.656 32.6197 92.7773 32.517 92.936C32.4237 93.0947 32.377 93.2907 32.377 93.524L31.145 93.356C31.1637 92.7773 31.299 92.2827 31.551 91.872C31.8123 91.452 32.153 91.13 32.573 90.906C33.0023 90.6727 33.483 90.556 34.015 90.556C34.5377 90.556 34.9997 90.668 35.401 90.892C35.8117 91.1067 36.1337 91.4193 36.367 91.83C36.6097 92.2313 36.731 92.7167 36.731 93.286L36.731 97.5L34.589 97.5ZM42.0237 97.64C41.5663 97.64 41.1463 97.5513 40.7637 97.374C40.381 97.1967 40.0683 96.954 39.8257 96.646C39.583 96.3287 39.443 95.9693 39.4057 95.568L39.4057 92.698C39.443 92.2967 39.583 91.9327 39.8257 91.606C40.0683 91.2793 40.381 91.0227 40.7637 90.836C41.1463 90.6493 41.5663 90.556 42.0237 90.556C42.6677 90.556 43.237 90.71 43.7317 91.018C44.2357 91.326 44.6277 91.746 44.9077 92.278C45.197 92.81 45.3417 93.4167 45.3417 94.098C45.3417 94.7793 45.197 95.386 44.9077 95.918C44.6277 96.45 44.2357 96.87 43.7317 97.178C43.237 97.486 42.6677 97.64 42.0237 97.64ZM38.1037 100.37L38.1037 90.696L40.2457 90.696L40.2457 92.446L39.8957 94.098L40.2177 95.75L40.2177 100.37L38.1037 100.37ZM41.6317 95.708C41.9397 95.708 42.2057 95.638 42.4297 95.498C42.663 95.358 42.845 95.1667 42.9757 94.924C43.1063 94.6813 43.1717 94.406 43.1717 94.098C43.1717 93.7807 43.1063 93.5007 42.9757 93.258C42.845 93.0153 42.663 92.8287 42.4297 92.698C42.2057 92.558 41.9443 92.488 41.6457 92.488C41.347 92.488 41.081 92.558 40.8477 92.698C40.6237 92.8287 40.4463 93.0153 40.3157 93.258C40.185 93.5007 40.1197 93.7807 40.1197 94.098C40.1197 94.406 40.1803 94.6813 40.3017 94.924C40.4323 95.1667 40.6143 95.358 40.8477 95.498C41.081 95.638 41.3423 95.708 41.6317 95.708ZM46.4298 97.5L46.4298 87.336L48.5718 87.336L48.5718 97.5L46.4298 97.5ZM51.4242 97.654C51.0602 97.654 50.7569 97.528 50.5142 97.276C50.2716 97.024 50.1502 96.7207 50.1502 96.366C50.1502 95.9927 50.2716 95.6847 50.5142 95.442C50.7569 95.19 51.0602 95.064 51.4242 95.064C51.7976 95.064 52.1009 95.19 52.3342 95.442C52.5769 95.6847 52.6982 95.9927 52.6982 96.366C52.6982 96.7207 52.5769 97.024 52.3342 97.276C52.1009 97.528 51.7976 97.654 51.4242 97.654ZM54.749 97.5L54.749 90.108C54.749 89.5573 54.8703 89.0627 55.113 88.624C55.365 88.176 55.715 87.826 56.163 87.574C56.611 87.3127 57.143 87.182 57.759 87.182C58.2257 87.182 58.6317 87.2613 58.977 87.42C59.3317 87.5693 59.6397 87.7793 59.901 88.05L58.557 89.394C58.4637 89.3007 58.3563 89.2307 58.235 89.184C58.123 89.128 57.9877 89.1 57.829 89.1C57.5397 89.1 57.311 89.184 57.143 89.352C56.975 89.52 56.891 89.7487 56.891 90.038L56.891 97.5L54.749 97.5ZM53.251 92.516L53.251 90.696L58.851 90.696L58.851 92.516L53.251 92.516ZM63.0027 97.654C62.3773 97.654 61.822 97.528 61.3367 97.276C60.8607 97.0147 60.4873 96.66 60.2167 96.212C59.946 95.7547 59.8107 95.232 59.8107 94.644L59.8107 90.696L61.9527 90.696L61.9527 94.616C61.9527 94.8493 61.99 95.05 62.0647 95.218C62.1487 95.386 62.27 95.5167 62.4287 95.61C62.5873 95.7033 62.7787 95.75 63.0027 95.75C63.32 95.75 63.572 95.652 63.7587 95.456C63.9453 95.2507 64.0387 94.9707 64.0387 94.616L64.0387 90.696L66.1807 90.696L66.1807 94.63C66.1807 95.2273 66.0453 95.7547 65.7747 96.212C65.504 96.66 65.1307 97.0147 64.6547 97.276C64.1787 97.528 63.628 97.654 63.0027 97.654ZM72.0195 97.5L72.0195 93.622C72.0195 93.2673 71.9075 92.9827 71.6835 92.768C71.4689 92.544 71.1935 92.432 70.8575 92.432C70.6242 92.432 70.4189 92.4833 70.2415 92.586C70.0642 92.6793 69.9242 92.8193 69.8215 93.006C69.7189 93.1833 69.6675 93.3887 69.6675 93.622L68.8415 93.216C68.8415 92.684 68.9582 92.2173 69.1915 91.816C69.4249 91.4147 69.7469 91.1067 70.1575 90.892C70.5775 90.668 71.0489 90.556 71.5715 90.556C72.0755 90.556 72.5189 90.6773 72.9015 90.92C73.2935 91.1533 73.6015 91.466 73.8255 91.858C74.0495 92.25 74.1615 92.6793 74.1615 93.146L74.1615 97.5L72.0195 97.5ZM67.5255 97.5L67.5255 90.696L69.6675 90.696L69.6675 97.5L67.5255 97.5Z" fill="black"/>
<rect width="42" height="72" transform="translate(12 0.5)" fill="black"/>
<rect width="42" height="72" transform="translate(240 0.5)" fill="black"/>
<rect width="42" height="70" transform="translate(186 22.5)" fill="black"/>
<rect width="270" height="58" transform="translate(12 22.5)" fill="black"/>
<rect width="32" height="21" transform="translate(20 51.5)" fill="black"/>
<rect width="16" height="50" transform="translate(20 22.5)" fill="black"/>
<rect width="274" height="41" transform="translate(0 14.5)" fill="black"/>
<g clip-path="url(#clip0_1560_19174)">
<rect width="26" height="39" transform="translate(20 8.5)" fill="#99FF00"/>
<rect width="32" height="21" transform="translate(20 51.5)" fill="#99FF00"/>
<rect width="16" height="50" transform="translate(20 22.5)" fill="#99FF00"/>
<rect width="44" height="25" transform="translate(8 22.5)" fill="#99FF00"/>
<rect width="25" height="50" transform="translate(56 22.5)" fill="#99FF00"/>
<rect width="50" height="25" transform="translate(56 22.5)" fill="#99FF00"/>
<rect width="4" height="19" transform="translate(81 32.5)" fill="black"/>
<rect width="50" height="21" transform="translate(56 51.5)" fill="#99FF00"/>
<rect width="25" height="50" transform="translate(110 22.5)" fill="#99FF00"/>
<rect width="80" height="17" transform="translate(110 30.5)" fill="#99FF00"/>
<rect width="22" height="50" transform="translate(139 22.5)" fill="#99FF00"/>
<rect width="25" height="50" transform="translate(165 22.5)" fill="#99FF00"/>
<rect width="26" height="62" transform="translate(194 22.5)" fill="#99FF00"/>
<rect width="50" height="50" transform="translate(194 22.5)" fill="#99FF00"/>
<rect width="4" height="21" transform="translate(217 32.5)" fill="black"/>
<g clip-path="url(#clip1_1560_19174)">
<rect width="26" height="64" transform="translate(248 8.5)" fill="#99FF00"/>
</g>
</g>
<defs>
<clipPath id="clip0_1560_19174">
<rect width="266" height="92" fill="white" transform="translate(8 0.5)"/>
</clipPath>
<clipPath id="clip1_1560_19174">
<rect width="26" height="92" fill="white" transform="translate(248 0.5)"/>
</clipPath>
</defs>
</svg>
