<svg width="356" height="424" viewBox="0 0 356 424" fill="none" xmlns="http://www.w3.org/2000/svg">
<path d="M178 99V0L112 55.5V84L178 99Z" fill="black"/>
<path d="M178 99V0L244 55.5V84L178 99Z" fill="black"/>
<path d="M94.5 72.75L178 39.75V120.25L94.5 104.25V72.75Z" fill="black"/>
<path d="M261.5 72.75L178 39.75V120.25L261.5 104.25V72.75Z" fill="black"/>
<path d="M178 153.75L68.5 125.25V107.25L94.75 85.75L178 56.75V153.75Z" fill="black"/>
<path d="M178 153.75L287.5 125.25V107.25L261.25 85.75L178 56.75V153.75Z" fill="black"/>
<path d="M178 67.25L68.5 106.75V142.25L178 169.75V67.25Z" fill="black"/>
<path d="M178 67.25L287.5 106.75V142.25L178 169.75V67.25Z" fill="black"/>
<path d="M52 192.75L87 179.25L178 166.25V210.25H52V192.75Z" fill="black"/>
<rect width="126" height="80.5" transform="translate(52 194.25)" fill="black"/>
<path d="M52 274.75H177.995L178 329.75L52 279.25V274.75Z" fill="black"/>
<rect width="126" height="16" transform="translate(52 258.75)" fill="black"/>
<path d="M304 192.75L269 179.25L178 166.25V210.25H304V192.75Z" fill="black"/>
<rect width="126" height="80.5" transform="matrix(-1 0 0 1 304 194.25)" fill="black"/>
<path d="M304 274.75H178.005L178 329.75L304 279.25V274.75Z" fill="black"/>
<rect width="126" height="16" transform="matrix(-1 0 0 1 304 258.75)" fill="black"/>
<path d="M0 323.5V274.5L178 216V423.5L0 323.5Z" fill="black"/>
<path d="M356 323.5V274.5L178 216V423.5L356 323.5Z" fill="black"/>
<path d="M17.5 254.75L178 214.25V365.75L17.5 289.25V254.75Z" fill="black"/>
<path d="M338.5 254.75L178 214.25V365.75L338.5 289.25V254.75Z" fill="black"/>
<path d="M129.5 62L178 20.5V84.5L129.5 73.5V62Z" fill="#00FF00"/>
<path d="M129.5 62L178 40V84.5L129.5 73.5V62Z" fill="#14AC14"/>
<path d="M129.5 62L178 40V55L129.5 73.5V62Z" fill="#00BA00"/>
<path d="M226.5 62L178 20.5V84.5L226.5 73.5V62Z" fill="#14D714"/>
<path d="M226.5 62L178 40V84.5L226.5 73.5V62Z" fill="#14AC14"/>
<path d="M226.5 62L178 40V55L226.5 73.5V62Z" fill="#00BA00"/>
<path d="M113.5 79.25L178 54.75V105.25L113.5 94.25V79.25Z" fill="#14AC14"/>
<path d="M113.5 79.25L178 54.75V72.25L113.5 94.25V79.25Z" fill="#00FF00"/>
<path d="M242.5 79.25L178 54.75V105.25L242.5 94.25V79.25Z" fill="#14AC14"/>
<path d="M242.5 79.25L178 54.75V72.25L242.5 94.25V79.25Z" fill="#14D714"/>
<path d="M113.5 94.25L178 72.25V137.25L87 115.25L113.5 94.25Z" fill="#14AC14"/>
<path d="M113.5 94.25L178 72.25V84.75L87 115.25L113.5 94.25Z" fill="#00BA00"/>
<path d="M242.5 94.25L178 72.25V137.25L269 115.25L242.5 94.25Z" fill="#14AC14"/>
<path d="M242.5 94.25L178 72.25V84.75L269 115.25L242.5 94.25Z" fill="#00BA00"/>
<path d="M87 115.25L178 84.75V153.25L87 131.25V115.25Z" fill="#14AC14"/>
<path d="M87 115.25L178 84.75V100.75L87 131.25V115.25Z" fill="#00FF00"/>
<path d="M269 115.25L178 84.75V153.25L269 131.25V115.25Z" fill="#14AC14"/>
<path d="M269 115.25L178 84.75V100.75L269 131.25V115.25Z" fill="#14D714"/>
<path d="M17.5 315V287L178 234V405L17.5 315Z" fill="#00FF00"/>
<path d="M178 362.5L17.5 287L178 234V362.5Z" fill="#14AC14"/>
<path d="M338.5 315V287L178 234V405L338.5 315Z" fill="#14D714"/>
<path d="M178 362.5L338.5 287L178 234V362.5Z" fill="#14AC14"/>
<path d="M37 280.75V265.75L178 231.75V345.25L37 280.75Z" fill="#00FF00"/>
<path d="M37 265.75L178 231.75V324.75L37 265.75Z" fill="#14AC14"/>
<path d="M319 280.75V265.75L178 231.75V345.25L319 280.75Z" fill="#14D714"/>
<path d="M319 265.75L178 231.75V324.75L319 265.75Z" fill="#14AC14"/>
<path d="M87.0003 181.75L178 212.25V167.25H87L87.0003 181.75Z" fill="black"/>
<path d="M269 181.75L178 212.25V167.25H269L269 181.75Z" fill="black"/>
<rect width="182" height="36.5" transform="translate(87 135.75)" fill="black"/>
<path d="M87.0003 131.25L178 100.75V145.75H87L87.0003 131.25Z" fill="black"/>
<path d="M269 131.25L178 100.75V145.75H269L269 131.25Z" fill="black"/>
<path d="M268.773 163.55C271.926 195.617 242.27 211.847 179.803 212.239C117.487 212.71 86.5544 197.852 87.0048 167.666C87.4553 137.558 117.037 121.328 175.749 118.976C234.311 116.703 265.319 131.56 268.773 163.55Z" fill="black"/>
<path d="M122.376 164.563C123.526 160.335 129.037 155.051 139.904 151.251C150.748 147.476 164.444 149.758 173.991 152.237C178.263 153.479 178.004 154.721 178.006 156.181C178.008 158.128 175.504 158.647 175.504 158.647C135.33 169.273 139.085 173.445 128.902 171.959C122.904 171.084 121.188 168.797 122.376 164.563Z" fill="#99CC00"/>
<path d="M233.624 164.563C232.474 160.335 226.963 155.051 216.096 151.251C205.252 147.476 191.556 149.758 182.009 152.237C177.737 153.479 177.996 154.721 177.994 156.181C177.992 158.128 180.496 158.647 180.496 158.647C220.67 169.273 216.915 173.445 227.098 171.959C233.096 171.084 234.812 168.797 233.624 164.563Z" fill="#99CC00"/>
<path d="M230.369 139.561C232.188 159.11 215.079 169.004 179.04 169.243C143.089 169.53 125.243 160.473 125.503 142.07C125.763 123.716 142.829 113.822 176.701 112.388C210.487 111.002 228.376 120.06 230.369 139.561Z" fill="#99FF00"/>
<path d="M153.062 127.853C152.196 142.601 160.344 150.065 177.505 150.245C194.624 150.461 203.122 143.628 202.999 129.746C202.875 115.9 194.748 108.436 178.618 107.354C162.53 106.308 154.011 113.141 153.062 127.853Z" fill="black"/>
<path d="M269 131.25V147.25L178 117.062L87 147.25V131.25L178 100.75L269 131.25Z" fill="black"/>
<path d="M52 250.75H158V300.75L52 256.75V250.75Z" fill="black"/>
<path d="M52 250.75H158V300.75L52 256.75V250.75Z" fill="black"/>
<path d="M52 250.75V256.75L158 300.75V250.75H52Z" fill="black"/>
<rect width="106" height="57.5" transform="translate(52 199.25)" fill="black"/>
<path d="M52.6143 233.134C51.0289 255.598 65.9386 266.968 97.3434 267.242C128.673 267.572 144.224 257.164 143.998 236.017C143.771 214.926 128.899 203.556 99.3817 201.909C69.9398 200.316 54.3506 210.724 52.6143 233.134Z" fill="black"/>
<path d="M146.644 272.063C145.488 267.835 139.97 262.551 129.099 258.751C118.25 254.976 104.557 257.258 95.0125 259.737C90.7427 260.979 91.0031 262.221 91.0031 263.681C91.0031 265.628 93.5083 266.147 93.5083 266.147C133.695 276.773 129.947 280.945 140.127 279.459C146.124 278.584 147.837 276.297 146.644 272.063Z" fill="#99CC00"/>
<path d="M72.0899 233.613C70.8424 256.42 82.5747 267.963 107.287 268.242C131.939 268.577 144.176 258.01 143.998 236.54C143.82 215.127 132.117 203.584 108.891 201.911C85.7231 200.294 73.4562 210.861 72.0899 233.613Z" fill="#99FF00"/>
<path d="M61.0662 232.936C60.1479 246.312 68.7841 253.082 86.9749 253.245C105.122 253.442 114.13 247.244 113.999 234.653C113.867 222.095 105.253 215.326 88.1555 214.344C71.1017 213.396 62.0719 219.593 61.0662 232.936Z" fill="black"/>
<path d="M158.496 285.143L52 245.25V256.969L158.496 301.25V285.143Z" fill="black"/>
<rect width="10.5" height="57.5" transform="translate(72 199.25)" fill="black"/>
<path d="M52 199.25V227.25L157.999 221.75V199.25H52Z" fill="black"/>
<rect width="20" height="102" transform="translate(158 199.25)" fill="black"/>
<path d="M304 250.75H198V300.75L304 256.75V250.75Z" fill="black"/>
<path d="M304 250.75H198V300.75L304 256.75V250.75Z" fill="black"/>
<path d="M304 250.75V256.75L198 300.75V250.75H304Z" fill="black"/>
<rect width="106" height="57.5" transform="matrix(-1 0 0 1 304 199.25)" fill="black"/>
<path d="M303.386 233.134C304.971 255.598 290.061 266.968 258.657 267.242C227.327 267.572 211.776 257.164 212.002 236.017C212.229 214.926 227.101 203.556 256.618 201.909C286.06 200.316 301.649 210.724 303.386 233.134Z" fill="black"/>
<path d="M209.356 272.063C210.512 267.835 216.03 262.551 226.901 258.751C237.75 254.976 251.443 257.258 260.987 259.737C265.257 260.979 264.997 262.221 264.997 263.681C264.997 265.628 262.492 266.147 262.492 266.147C222.305 276.773 226.053 280.945 215.873 279.459C209.876 278.584 208.163 276.297 209.356 272.063Z" fill="#99CC00"/>
<path d="M283.91 233.613C285.158 256.42 273.425 267.963 248.713 268.242C224.061 268.577 211.824 258.01 212.002 236.54C212.18 215.127 223.883 203.584 247.109 201.911C270.277 200.294 282.544 210.861 283.91 233.613Z" fill="#99FF00"/>
<path d="M294.934 232.936C295.852 246.312 287.216 253.082 269.025 253.245C250.878 253.442 241.87 247.244 242.001 234.653C242.133 222.095 250.747 215.326 267.844 214.344C284.898 213.396 293.928 219.593 294.934 232.936Z" fill="black"/>
<path d="M197.504 285.143L304 245.25V256.969L197.504 301.25V285.143Z" fill="black"/>
<rect width="10.5" height="57.5" transform="matrix(-1 0 0 1 284 199.25)" fill="black"/>
<path d="M304 199.25V227.25L198.001 221.75V199.25H304Z" fill="black"/>
<rect width="20" height="102" transform="matrix(-1 0 0 1 198 199.25)" fill="black"/>
<rect width="20" height="16" transform="translate(158 194.25)" fill="#00FF00"/>
<path d="M73 201.75L107.637 189.75L177.915 179.75V203.25L73 210.25V201.75Z" fill="#00FF00"/>
<path d="M178.029 210.25V179.75L170.5 185.25V210.25H178.029Z" fill="#14AC14"/>
<path d="M107.637 189.75L73 201.75L170.386 192.75L177.916 179.75L107.637 189.75Z" fill="#00BA00"/>
<rect width="20" height="76" transform="translate(158 194.25)" fill="#00FF00"/>
<rect width="7.5" height="76" transform="translate(170.5 194.25)" fill="#14AC14"/>
<path d="M178 309.25L178 254.25H158V301.25L178 309.25Z" fill="#00FF00"/>
<path d="M178 254.25V309.25L170.5 306.25V254.25H178Z" fill="#14AC14"/>
<rect width="20" height="16" transform="matrix(-1 0 0 1 198 194.25)" fill="#00FF00"/>
<path d="M283 201.75L248.363 189.75L178.085 179.75V203.25L283 210.25V201.75Z" fill="#14D714"/>
<path d="M177.971 210.25V179.75L185.5 185.25V210.25H177.971Z" fill="#14AC14"/>
<path d="M248.363 189.75L283 201.75L185.614 192.75L178.084 179.75L248.363 189.75Z" fill="#00BA00"/>
<rect width="20" height="76" transform="matrix(-1 0 0 1 198 194.25)" fill="#14D714"/>
<rect width="7.5" height="76" transform="matrix(-1 0 0 1 185.5 194.25)" fill="#14AC14"/>
<path d="M178 309.25L178 254.25H198V301.25L178 309.25Z" fill="#14D714"/>
<path d="M178 254.25V309.25L185.5 306.25V254.25H178Z" fill="#14AC14"/>
</svg>
